# xmcd
#
# Track frame offsets:
#	150
#	13545
#	30634
#	49944
#	66608
#	83880
#	101285
#	117567
#	136616
#	148693
#	166780
#	181490
#	200007
#	217949
#	235578
#	256105
#
# Disc length: 3605 seconds
#
# Revision: 1
# Processed by: cddbd v1.5PL3 Copyright (c) Steve Scherf et al.
# Submitted via: CDex 1.50Beta5
#
DISCID=d90e1310
DTITLE=内山田洋 - NEW BEST 内山田洋とクールファイブ
DYEAR=1994
DGENRE=Pop
TTITLE0=そして,神戸
TTITLE1=逢わずに愛して
TTITLE2=愛の旅路を
TTITLE3=悲恋
TTITLE4=恋唄
TTITLE5=この愛に生きて
TTITLE6=愛のいたずら
TTITLE7=すべてを愛して
TTITLE8=港の別れ唄
TTITLE9=西海ブルース
TTITLE10=中の島ブルース
TTITLE11=長崎は今日も雨だった
TTITLE12=東京砂漠
TTITLE13=噂の女
TTITLE14=さよならの彼方へ
TTITLE15=北ホテル
EXTD=
EXTT0=
EXTT1=
EXTT2=
EXTT3=
EXTT4=
EXTT5=
EXTT6=
EXTT7=
EXTT8=
EXTT9=
EXTT10=
EXTT11=
EXTT12=
EXTT13=
EXTT14=
EXTT15=
PLAYORDER=
